<svg width="92" height="29" viewBox="0 0 92 29" fill="none" xmlns="http://www.w3.org/2000/svg">
<path fill-rule="evenodd" clip-rule="evenodd" d="M11.0186 0.392792C9.577 0.95065 6.9363 6.24616 6.22634 10.0022C5.69387 12.8213 5.42055 13.0671 2.82402 13.0671C0.869121 13.0671 0 13.4495 0 14.3086C0 15.1644 0.864958 15.5501 2.78402 15.5501C5.47472 15.5501 5.60138 15.7008 6.58216 20.0519C7.13963 22.5275 8.35206 25.5072 9.27535 26.6734C10.7611 28.5497 11.5602 28.7931 16.2416 28.7931C21.3672 28.7931 21.5839 28.7054 23.2979 25.9508C24.2712 24.3873 25.3428 21.5004 25.6803 19.5363L26.2936 15.964L45.9259 15.7422L65.5582 15.5212L66.5415 19.8847C67.0823 22.285 68.3831 25.3176 69.4314 26.6246C71.1405 28.7534 71.8446 29 76.2102 29C80.355 29 81.3082 28.707 82.6048 27.0343C84.0981 25.1066 85.1889 22.3073 86.173 17.8784C86.568 16.1014 87.2104 15.6023 89.3728 15.3954C92.8677 15.061 92.8785 13.5579 89.3887 13.2227C87.0005 12.9943 86.598 12.5763 85.7972 9.49812C84.2948 3.71758 84.1973 3.485 82.5565 1.73528C81.3341 0.431675 79.8942 0.0335584 76.2852 0.00127875C70.533 -0.0500376 68.8581 1.4216 66.8215 8.32034L65.4132 13.0919L45.9226 12.8726L26.432 12.6533L25.4103 8.65306C24.8479 6.4539 23.6429 3.66047 22.7313 2.44543C21.3222 0.569072 20.4006 0.218969 16.5783 0.109715C14.1059 0.0393621 11.6036 0.166834 11.0186 0.392792ZM13.6543 2.98261C13.8859 3.35424 13.5493 5.123 12.9068 6.91411C11.3786 11.175 11.3711 16.795 12.8852 21.7942C14.2068 26.1553 14.0918 26.7768 12.106 26.0195C10.0378 25.2315 9.04036 21.4234 9.08369 14.4783C9.13202 6.60619 11.7744 -0.039261 13.6543 2.98261ZM21.1497 4.1695C21.8039 5.19417 22.5955 7.61515 22.9088 9.54944C23.4563 12.9272 23.3929 13.0671 21.3222 13.0671C18.634 13.0671 18.3924 15.3258 21.0406 15.6991C22.6813 15.9309 22.883 16.3778 22.6538 19.2747C22.3363 23.2973 20.3931 26.507 18.494 26.1437C16.1483 25.6951 14.8959 21.7205 14.9117 14.7713C14.9342 4.59906 18.0466 -0.690656 21.1497 4.1695ZM73.3978 5.4913C71.2054 9.56019 71.4329 18.7814 73.8811 25.1206C74.162 25.8457 73.827 26.31 73.0237 26.31C68.4056 26.31 67.5665 6.0831 72.0554 2.96273C73.4712 1.97862 74.3744 3.6795 73.3978 5.4913ZM81.1466 4.1695C81.8007 5.19417 82.5924 7.61515 82.9057 9.54944C83.4231 12.7451 83.3165 13.0671 81.7357 13.0671C79.4525 13.0671 79.4858 15.2249 81.7791 15.82C83.279 16.2098 83.489 16.7188 83.1023 19.0206C82.2774 23.9238 80.9808 26.31 79.1409 26.31C74.2895 26.31 73.0804 5.91096 77.7568 2.95778C79.3125 1.97449 79.8733 2.17561 81.1466 4.1695Z" fill="#957C3A"/>
</svg>
